<mxfile host="app.diagrams.net" modified="2021-04-10T06:21:44.937Z" agent="5.0 (Macintosh; Intel Mac OS X 10_15_7) AppleWebKit/537.36 (KHTML, like Gecko) Chrome/86.0.4240.193 Safari/537.36" etag="CLTIEjN2ziJ4g046-sAi" version="14.5.8" type="github">
  <diagram id="SL1IceFPtxq1ef1_9ELk" name="Page-1">
    <mxGraphModel dx="946" dy="536" grid="1" gridSize="10" guides="1" tooltips="1" connect="1" arrows="1" fold="1" page="1" pageScale="1" pageWidth="827" pageHeight="1169" math="0" shadow="0">
      <root>
        <mxCell id="0" />
        <mxCell id="1" parent="0" />
        <mxCell id="2xxLxs9dH6POTLFMKOJW-1" value="«interface»&lt;br&gt;&lt;pre&gt;Executor&lt;/pre&gt;" style="html=1;" vertex="1" parent="1">
          <mxGeometry x="280" y="80" width="120" height="60" as="geometry" />
        </mxCell>
        <mxCell id="2xxLxs9dH6POTLFMKOJW-3" value="&lt;pre&gt;BaseExecutor&lt;/pre&gt;" style="html=1;" vertex="1" parent="1">
          <mxGeometry x="200" y="190" width="110" height="50" as="geometry" />
        </mxCell>
        <mxCell id="2xxLxs9dH6POTLFMKOJW-4" value="&lt;pre&gt;&lt;pre&gt;CachingExecutor&lt;/pre&gt;&lt;/pre&gt;" style="html=1;" vertex="1" parent="1">
          <mxGeometry x="370" y="190" width="141" height="50" as="geometry" />
        </mxCell>
        <mxCell id="2xxLxs9dH6POTLFMKOJW-5" value="&lt;pre&gt;&lt;pre&gt;BatchExecutor&lt;/pre&gt;&lt;/pre&gt;" style="html=1;" vertex="1" parent="1">
          <mxGeometry y="280" width="110" height="50" as="geometry" />
        </mxCell>
        <mxCell id="2xxLxs9dH6POTLFMKOJW-6" value="&lt;pre&gt;&lt;pre&gt;&lt;pre&gt;ClosedExecutor&lt;/pre&gt;&lt;/pre&gt;&lt;/pre&gt;" style="html=1;" vertex="1" parent="1">
          <mxGeometry x="130" y="280" width="110" height="50" as="geometry" />
        </mxCell>
        <mxCell id="2xxLxs9dH6POTLFMKOJW-7" value="&lt;pre&gt;&lt;pre&gt;&lt;pre&gt;ReuseExecutor&lt;/pre&gt;&lt;/pre&gt;&lt;/pre&gt;" style="html=1;" vertex="1" parent="1">
          <mxGeometry x="270" y="280" width="110" height="50" as="geometry" />
        </mxCell>
        <mxCell id="2xxLxs9dH6POTLFMKOJW-8" value="&lt;pre&gt;&lt;pre&gt;&lt;pre&gt;SimpleExecutor&lt;/pre&gt;&lt;/pre&gt;&lt;/pre&gt;" style="html=1;" vertex="1" parent="1">
          <mxGeometry x="400" y="280" width="110" height="50" as="geometry" />
        </mxCell>
        <mxCell id="2xxLxs9dH6POTLFMKOJW-9" value="1" style="endArrow=open;html=1;endSize=12;startArrow=diamondThin;startSize=14;startFill=0;edgeStyle=orthogonalEdgeStyle;align=left;verticalAlign=bottom;entryX=1;entryY=0.5;entryDx=0;entryDy=0;" edge="1" parent="1" target="2xxLxs9dH6POTLFMKOJW-1">
          <mxGeometry x="-1" y="3" relative="1" as="geometry">
            <mxPoint x="511" y="214.5" as="sourcePoint" />
            <mxPoint x="450" y="110" as="targetPoint" />
            <Array as="points">
              <mxPoint x="570" y="215" />
              <mxPoint x="570" y="110" />
            </Array>
          </mxGeometry>
        </mxCell>
        <mxCell id="2xxLxs9dH6POTLFMKOJW-11" value="" style="endArrow=block;dashed=1;endFill=0;endSize=12;html=1;entryX=0.5;entryY=1;entryDx=0;entryDy=0;exitX=0.5;exitY=0;exitDx=0;exitDy=0;" edge="1" parent="1" source="2xxLxs9dH6POTLFMKOJW-3" target="2xxLxs9dH6POTLFMKOJW-1">
          <mxGeometry width="160" relative="1" as="geometry">
            <mxPoint x="160" y="150" as="sourcePoint" />
            <mxPoint x="320" y="150" as="targetPoint" />
          </mxGeometry>
        </mxCell>
        <mxCell id="2xxLxs9dH6POTLFMKOJW-12" value="" style="endArrow=block;dashed=1;endFill=0;endSize=12;html=1;entryX=0.5;entryY=1;entryDx=0;entryDy=0;exitX=0.5;exitY=0;exitDx=0;exitDy=0;" edge="1" parent="1" target="2xxLxs9dH6POTLFMKOJW-1">
          <mxGeometry width="160" relative="1" as="geometry">
            <mxPoint x="440" y="190" as="sourcePoint" />
            <mxPoint x="525" y="140" as="targetPoint" />
          </mxGeometry>
        </mxCell>
        <mxCell id="2xxLxs9dH6POTLFMKOJW-13" value="" style="endArrow=block;endSize=16;endFill=0;html=1;exitX=0.5;exitY=0;exitDx=0;exitDy=0;" edge="1" parent="1" source="2xxLxs9dH6POTLFMKOJW-5">
          <mxGeometry width="160" relative="1" as="geometry">
            <mxPoint x="90" y="240" as="sourcePoint" />
            <mxPoint x="250" y="240" as="targetPoint" />
          </mxGeometry>
        </mxCell>
      </root>
    </mxGraphModel>
  </diagram>
</mxfile>
